<svg width="22" height="22" viewBox="0 0 22 22" fill="none" xmlns="http://www.w3.org/2000/svg">
<path d="M11 2.74978C9.29819 2.74978 7.66609 3.42582 6.46273 4.62918C5.25937 5.83253 4.58333 7.46464 4.58333 9.16644C4.58333 11.7899 6.21683 14.3209 8.00983 16.2816C8.92663 17.2804 9.92698 18.1992 11 19.0279C11.1601 18.9051 11.348 18.7554 11.5638 18.5788C12.4252 17.8714 13.236 17.1044 13.9902 16.2834C15.7832 14.3209 17.4167 11.7909 17.4167 9.16644C17.4167 7.46464 16.7406 5.83253 15.5373 4.62918C14.3339 3.42582 12.7018 2.74978 11 2.74978ZM11 21.2793L10.4802 20.9218L10.4775 20.9199L10.472 20.9154L10.4537 20.9025L10.3849 20.8539L10.1374 20.6734C8.88329 19.7308 7.71822 18.6753 6.65683 17.52C4.78317 15.4685 2.75 12.4994 2.75 9.16553C2.75 6.97749 3.61919 4.87907 5.16637 3.3319C6.71354 1.78472 8.81196 0.915527 11 0.915527C13.188 0.915527 15.2865 1.78472 16.8336 3.3319C18.3808 4.87907 19.25 6.97749 19.25 9.16553C19.25 12.4994 17.2168 15.4694 15.3432 17.5182C14.2821 18.6734 13.1173 19.729 11.8635 20.6715C11.7591 20.7495 11.6536 20.8262 11.5473 20.9016L11.528 20.9144L11.5225 20.919L11.5207 20.9199L11 21.2793ZM11 7.33311C10.5138 7.33311 10.0475 7.52627 9.70364 7.87008C9.35982 8.2139 9.16667 8.68021 9.16667 9.16644C9.16667 9.65267 9.35982 10.119 9.70364 10.4628C10.0475 10.8066 10.5138 10.9998 11 10.9998C11.4862 10.9998 11.9525 10.8066 12.2964 10.4628C12.6402 10.119 12.8333 9.65267 12.8333 9.16644C12.8333 8.68021 12.6402 8.2139 12.2964 7.87008C11.9525 7.52627 11.4862 7.33311 11 7.33311ZM7.33333 9.16644C7.33333 8.19398 7.71964 7.26135 8.40728 6.57372C9.09491 5.88609 10.0275 5.49978 11 5.49978C11.9725 5.49978 12.9051 5.88609 13.5927 6.57372C14.2804 7.26135 14.6667 8.19398 14.6667 9.16644C14.6667 10.1389 14.2804 11.0715 13.5927 11.7592C12.9051 12.4468 11.9725 12.8331 11 12.8331C10.0275 12.8331 9.09491 12.4468 8.40728 11.7592C7.71964 11.0715 7.33333 10.1389 7.33333 9.16644Z" fill="#326736"/>
</svg>
