<svg width="80" height="80" viewBox="0 0 80 80" fill="none" xmlns="http://www.w3.org/2000/svg">
<circle cx="40" cy="40" r="40" fill="#51A44A"/>
<path d="M56.45 23.4566C54.3105 21.2962 51.7624 19.5832 48.9542 18.4175C46.146 17.2517 43.1339 16.6566 40.0933 16.6666C27.3533 16.6666 16.97 27.05 16.97 39.79C16.97 43.8733 18.0433 47.84 20.05 51.34L16.7833 63.3333L29.0333 60.1133C32.4167 61.9566 36.22 62.9366 40.0933 62.9366C52.8333 62.9366 63.2167 52.5533 63.2167 39.8133C63.2167 33.63 60.8133 27.82 56.45 23.4566ZM40.0933 59.0166C36.64 59.0166 33.2567 58.0833 30.2933 56.3333L29.5933 55.9133L22.3133 57.8266L24.25 50.7333L23.7833 50.01C21.8643 46.9464 20.8455 43.4049 20.8433 39.79C20.8433 29.1966 29.4767 20.5633 40.07 20.5633C45.2033 20.5633 50.0333 22.57 53.65 26.21C55.4411 27.9923 56.8605 30.1126 57.8258 32.4477C58.7911 34.7829 59.2831 37.2865 59.2733 39.8133C59.32 50.4066 50.6867 59.0166 40.0933 59.0166ZM50.64 44.6433C50.0567 44.3633 47.21 42.9633 46.6967 42.7533C46.16 42.5666 45.7867 42.4733 45.39 43.0333C44.9933 43.6166 43.8967 44.9233 43.57 45.2966C43.2433 45.6933 42.8933 45.74 42.31 45.4366C41.7267 45.1566 39.86 44.5266 37.6667 42.5666C35.94 41.0266 34.7967 39.1366 34.4467 38.5533C34.12 37.97 34.4 37.6666 34.7033 37.3633C34.96 37.1066 35.2867 36.6866 35.5667 36.36C35.8467 36.0333 35.9633 35.7766 36.15 35.4033C36.3367 35.0066 36.2433 34.68 36.1033 34.4C35.9633 34.12 34.7967 31.2733 34.33 30.1066C33.8633 28.9866 33.3733 29.1266 33.0233 29.1033H31.9033C31.5067 29.1033 30.9 29.2433 30.3633 29.8266C29.85 30.41 28.3567 31.81 28.3567 34.6566C28.3567 37.5033 30.4333 40.2566 30.7133 40.63C30.9933 41.0266 34.7967 46.86 40.5833 49.3566C41.96 49.9633 43.0333 50.3133 43.8733 50.57C45.25 51.0133 46.51 50.9433 47.5133 50.8033C48.6333 50.64 50.9433 49.4033 51.41 48.05C51.9 46.6966 51.9 45.5533 51.7367 45.2966C51.5733 45.04 51.2233 44.9233 50.64 44.6433Z" fill="#DEEBE1"/>
</svg>
