<svg width="40" height="40" viewBox="0 0 40 40" fill="none" xmlns="http://www.w3.org/2000/svg">
<path d="M25.465 17.1383C26.0628 16.7717 26.4589 16.2694 26.6533 15.6317C26.1063 15.9266 25.5198 16.1416 24.9117 16.27C24.6629 15.9964 24.3583 15.7793 24.0184 15.6335C23.6786 15.4877 23.3114 15.4166 22.9417 15.425C22.1683 15.425 21.5167 15.6967 20.9833 16.2233C20.7275 16.4749 20.5251 16.7755 20.3883 17.1071C20.2514 17.4387 20.1828 17.7946 20.1867 18.1533C20.1867 18.3833 20.2156 18.5856 20.2733 18.76C17.9922 18.6822 16.1083 17.7344 14.6217 15.9167C14.3775 16.331 14.247 16.8024 14.2433 17.2833C14.2433 18.2467 14.6489 19.0094 15.46 19.5717C15.0343 19.5434 14.6195 19.4246 14.2433 19.2233C14.2433 19.9117 14.445 20.4867 14.8517 20.9933C15.2572 21.4933 15.7789 21.8117 16.4167 21.9483C16.1798 22.0089 15.9361 22.0386 15.6917 22.0367C15.5248 22.0472 15.3575 22.0263 15.1983 21.975C15.3717 22.5361 15.6906 22.9906 16.155 23.3383C16.6172 23.6883 17.1489 23.8717 17.75 23.8883C16.7867 24.6535 15.5885 25.0622 14.3583 25.045C14.045 25.045 13.825 25.0417 13.6917 25.0167C14.9409 25.8297 16.4029 26.2548 17.8933 26.2383C19.4789 26.2383 20.88 25.8367 22.0967 25.0333C23.3156 24.2333 24.2139 23.2517 24.7917 22.0883C25.3623 20.9657 25.6598 19.7243 25.66 18.465V18.1167C26.22 17.6944 26.6744 17.22 27.0233 16.6933C26.5271 16.9135 26.0026 17.0632 25.465 17.1383ZM20 35C15.85 35 12.275 33.5167 9.37333 30.59C6.47167 27.6717 5 24.1083 5 20C5 15.8533 6.47333 12.2767 9.37833 9.375C12.2783 6.47333 15.8517 5 20 5C24.11 5 27.6733 6.47167 30.59 9.37333C33.5167 12.2767 35 15.8533 35 20C35 24.1083 33.5183 27.6733 30.5933 30.595C27.675 33.5167 24.1117 35 20 35ZM20 8.33333C16.7233 8.33333 14.02 9.445 11.7367 11.7333C9.445 14.02 8.33333 16.7233 8.33333 20C8.33333 23.24 9.44667 25.9367 11.7383 28.2417C14.025 30.5467 16.7267 31.6667 20 31.6667C23.2383 31.6667 25.9333 30.545 28.2367 28.2383C30.545 25.9317 31.6667 23.235 31.6667 20C31.6667 16.7283 30.5467 14.025 28.2417 11.7383C25.9367 9.44667 23.2417 8.33333 20 8.33333Z" fill="#326736"/>
</svg>
