<svg width="22" height="22" viewBox="0 0 22 22" fill="none" xmlns="http://www.w3.org/2000/svg">
<path d="M6.41675 16.5002C5.40841 16.5002 4.59258 17.3252 4.59258 18.3335C4.59258 19.3418 5.40841 20.1668 6.41675 20.1668C7.42508 20.1668 8.25008 19.3418 8.25008 18.3335C8.25008 17.3252 7.42508 16.5002 6.41675 16.5002ZM15.5834 16.5002C14.5751 16.5002 13.7592 17.3252 13.7592 18.3335C13.7592 19.3418 14.5751 20.1668 15.5834 20.1668C16.5917 20.1668 17.4167 19.3418 17.4167 18.3335C17.4167 17.3252 16.5917 16.5002 15.5834 16.5002ZM14.2542 11.9168C14.9417 11.9168 15.5467 11.541 15.8584 10.9727L19.1401 5.0235C19.2173 4.88455 19.257 4.72784 19.2551 4.56888C19.2532 4.40992 19.2098 4.2542 19.1292 4.11715C19.0486 3.9801 18.9337 3.86646 18.7957 3.78748C18.6578 3.7085 18.5016 3.66691 18.3426 3.66683H4.77591L3.91425 1.8335H0.916748V3.66683H2.75008L6.05008 10.6243L4.81258 12.861C4.14341 14.0893 5.02341 15.5835 6.41675 15.5835H17.4167V13.7502H6.41675L7.42508 11.9168H14.2542ZM5.64675 5.50016H16.7842L14.2542 10.0835H7.81925L5.64675 5.50016Z" fill="white"/>
</svg>
